<?xml version="1.0" encoding="utf-8"?>
<svg xmlns="http://www.w3.org/2000/svg"
	xmlns:xlink="http://www.w3.org/1999/xlink"
	width="98px" height="98px" viewBox="0 0 98 98">
<path fillRule="evenodd" d="M 49 98C 21.94 98-0 76.06-0 49-0 21.94 21.94-0 49-0 76.06-0 98 21.94 98 49 98 76.06 76.06 98 49 98ZM 49 3.5C 23.87 3.5 3.5 23.87 3.5 49 3.5 74.13 23.87 94.5 49 94.5 74.13 94.5 94.5 74.13 94.5 49 94.5 23.87 74.13 3.5 49 3.5ZM 50 50C 50 50 50 79 50 79 50 79 48 79 48 79 48 79 48 50 48 50 48 50 17 50 17 50 17 50 17 48 17 48 17 48 48 48 48 48 48 48 48 18 48 18 48 18 50 18 50 18 50 18 50 48 50 48 50 48 82 48 82 48 82 48 82 50 82 50 82 50 50 50 50 50Z" fill="rgb(161,161,161)"/></svg>