<?xml version="1.0" encoding="utf-8"?>
<svg xmlns="http://www.w3.org/2000/svg"
	xmlns:xlink="http://www.w3.org/1999/xlink"
	width="42px" height="41px" viewBox="0 0 42 41">
<filter filterUnits="objectBoundingBox" x="0.00" y="0.00" width="100.00" height="100.00" id="filter0">
<feFlood flood-color="rgb(255,255,255)" result="coFloodOut1"/>
<feComposite in="coFloodOut1" in2="SourceAlpha" operator="in" result="coOverlay1"/>
<feBlend in="coOverlay1" in2="SourceGraphic" mode="normal" result="colorOverlay1"/>
</filter>
<path fillRule="evenodd" d="M 37.7 24.22C 37.7 24.22 36.57 23.06 36.57 23.06 41.25 18.24 41.25 10.43 36.57 5.62 31.89 0.8 24.3 0.8 19.62 5.62 19.62 5.62 18.49 4.46 18.49 4.46 23.79-1 32.39-1 37.7 4.46 43 9.91 43 18.76 37.7 24.22ZM 24.36 10.04C 24.22 9.83 24.02 9.66 23.76 9.54 23.5 9.41 23.18 9.35 22.81 9.35 22.12 9.35 21.62 9.61 21.33 10.15 21.03 10.68 20.86 11.42 20.83 12.37 20.83 12.37 18.95 12.37 18.95 12.37 18.95 10.99 19.3 9.86 20 9 20.7 8.14 21.67 7.7 22.92 7.7 23.6 7.7 24.17 7.82 24.66 8.04 25.14 8.27 25.52 8.57 25.81 8.94 26.1 9.31 26.3 9.72 26.44 10.15 26.57 10.58 26.63 11 26.63 11.42 26.63 12.28 26.41 13.03 25.95 13.66 25.49 14.3 24.86 14.91 24.06 15.49 23.88 15.63 23.61 15.82 23.25 16.06 22.57 16.52 22.06 16.91 21.71 17.23 21.35 17.55 21.12 17.89 21 18.27 21 18.27 26.62 18.27 26.62 18.27 26.62 18.27 26.62 20.03 26.62 20.03 26.62 20.03 18.74 20.03 18.74 20.03 18.75 19.07 18.97 18.2 19.41 17.45 19.85 16.68 20.47 16.02 21.28 15.46 21.47 15.31 21.75 15.11 22.12 14.85 22.58 14.53 22.94 14.27 23.21 14.06 23.47 13.85 23.72 13.62 23.96 13.37 24.19 13.12 24.38 12.83 24.52 12.52 24.67 12.2 24.74 11.86 24.76 11.49 24.76 11.23 24.72 10.98 24.66 10.74 24.6 10.49 24.5 10.26 24.36 10.04ZM 26.77 29.87C 26.77 29.87 27.34 29.28 27.34 29.28 27.34 29.28 36.93 39.16 36.93 39.16 34.53 41.49 25.77 44 11.6 29.37-2 15.33 0.61 7.25 2.47 4.89 2.65 4.7 2.84 4.5 3.04 4.3 3.04 4.3 12.72 14.27 12.72 14.27 12.72 14.27 12.15 14.86 12.15 14.86 10.79 16.29 12.23 18.18 13.77 20.09 13.81 20.19 20.61 27.01 20.66 27.03 23.96 29.74 25.47 31.23 26.77 29.87ZM 15.27 11.65C 14.93 12 14.34 12.6 13.85 13.11 13.85 13.11 4.16 3.14 4.16 3.14 4.75 2.53 5.28 2 5.58 1.68 5.58 1.68 5.58 1.69 5.58 1.69 6.99 0.24 9.28 0.24 10.7 1.7 10.7 1.7 15.25 6.39 15.25 6.39 16.67 7.85 16.67 10.2 15.27 11.65 15.27 11.65 15.27 11.65 15.27 11.65ZM 33.84 20.03C 33.84 20.03 33.84 17.17 33.84 17.17 33.84 17.17 28.89 17.17 28.89 17.17 28.89 17.17 28.89 15.22 28.89 15.22 28.89 15.22 33.84 7.95 33.84 7.95 33.84 7.95 35.62 7.95 35.62 7.95 35.62 7.95 35.62 15.61 35.62 15.61 35.62 15.61 37.1 15.61 37.1 15.61 37.1 15.61 37.1 17.17 37.1 17.17 37.1 17.17 35.62 17.17 35.62 17.17 35.62 17.17 35.62 20.03 35.62 20.03 35.62 20.03 33.84 20.03 33.84 20.03ZM 33.84 10.3C 33.84 10.3 33.81 10.3 33.81 10.3 33.81 10.3 30.34 15.61 30.34 15.61 30.34 15.61 33.84 15.61 33.84 15.61 33.84 15.61 33.84 10.3 33.84 10.3ZM 29.59 26.96C 31 25.51 33.49 25.15 34.9 26.61 34.9 26.61 39.46 31.3 39.46 31.3 40.87 32.75 40.88 35.11 39.47 36.56 39.47 36.56 39.47 36.56 39.47 36.56 39.04 37 38.46 37.59 38.07 38 38.07 38 28.47 28.12 28.47 28.12 28.47 28.12 29.59 26.96 29.59 26.96Z" fill="rgb(255,255,255)" filter="url(#filter0)"/></svg>