<?xml version="1.0" encoding="utf-8"?>
<svg xmlns="http://www.w3.org/2000/svg"
	xmlns:xlink="http://www.w3.org/1999/xlink"
	width="45px" height="41px" viewBox="0 0 45 41">
<path fillRule="evenodd" d="M-0 20.5C-0 20.5 22.71-0 22.71-0 22.71-0 45 20.5 45 20.5 45 20.5 40.71 20.5 40.71 20.5 40.71 20.5 40.71 41 40.71 41 40.71 41 28.29 41 28.29 41 28.29 41 28.29 24.68 28.29 24.68 28.29 24.68 17.14 24.68 17.14 24.68 17.14 24.68 17.14 41 17.14 41 17.14 41 4.29 41 4.29 41 4.29 41 4.29 20.5 4.29 20.5 4.29 20.5-0 20.5-0 20.5Z" fill="rgb(67,67,67)"/></svg>