<svg xmlns="http://www.w3.org/2000/svg" xmlns:xlink="http://www.w3.org/1999/xlink" width="0" height="0" style="position:absolute">

<symbol id="icon-add" viewBox="0 0 98 98">
        <path d="M49 98C21.94 98 0 76.06 0 49S21.94 0 49 0s49 21.94 49 49-21.94 49-49 49zm0-94.5C23.87 3.5 3.5 23.87 3.5 49S23.87 94.5 49 94.5 94.5 74.13 94.5 49 74.13 3.5 49 3.5zM50 50v29h-2V50H17v-2h31V18h2v30h32v2H50z" fill="#A1A1A1"/>
</symbol>

<symbol id="icon-arrow" viewBox="0 0 14 24">
        <path d="M10.18 11.9L.31 21.68c-.31.3-.22.89.2 1.31l.51.5c.42.42 1.01.51 1.32.21L12.7 13.43c.1-.05.21-.12.3-.22l.5-.49c.41-.41.5-.98.2-1.28L2.45.3c-.3-.3-.88-.21-1.29.2l-.5.49c-.41.41-.5.98-.2 1.28l9.72 9.63z" fill="#fff"/>
</symbol>

<symbol id="icon-arrow-double" viewBox="0 0 34 29">
        <path d="M1.14 0l9.16 13.92L0 29h10.3l9.15-15.08L10.3 0H1.14z" fill="#118F11"/><path d="M15.69 0l9.16 13.92L14.55 29h10.3L34 13.92 24.85 0h-9.16z" fill="#0971C5"/>
</symbol>

<symbol id="icon-call" viewBox="0 0 42 41">
        <path d="M37.7 24.22l-1.13-1.16c4.68-4.82 4.68-12.63 0-17.44C31.89.8 24.3.8 19.62 5.62l-1.13-1.16C23.79-1 32.39-1 37.7 4.46c5.3 5.45 5.3 14.3 0 19.76zM24.36 10.04c-.14-.21-.34-.38-.6-.5-.26-.13-.58-.19-.95-.19-.69 0-1.19.26-1.48.8-.3.53-.47 1.27-.5 2.22h-1.88c0-1.38.35-2.51 1.05-3.37.7-.86 1.67-1.3 2.92-1.3.68 0 1.25.12 1.74.34.48.23.86.53 1.15.9.29.37.49.78.63 1.21.13.43.19.85.19 1.27 0 .86-.22 1.61-.68 2.24-.46.64-1.09 1.25-1.89 1.83-.18.14-.45.33-.81.57-.68.46-1.19.85-1.54 1.17-.36.32-.59.66-.71 1.04h5.62v1.76h-7.88c.01-.96.23-1.83.67-2.58.44-.77 1.06-1.43 1.87-1.99.19-.15.47-.35.84-.61.46-.32.82-.58 1.09-.79.26-.21.51-.44.75-.69.23-.25.42-.54.56-.85.15-.32.22-.66.24-1.03 0-.26-.04-.51-.1-.75-.06-.25-.16-.48-.3-.7zm2.41 19.83l.57-.59 9.59 9.88c-2.4 2.33-11.16 4.84-25.33-9.79C-2 15.33.61 7.25 2.47 4.89c.18-.19.37-.39.57-.59l9.68 9.97-.57.59c-1.36 1.43.08 3.32 1.62 5.23.04.1 6.84 6.92 6.89 6.94 3.3 2.71 4.81 4.2 6.11 2.84zm-11.5-18.22c-.34.35-.93.95-1.42 1.46L4.16 3.14C4.75 2.53 5.28 2 5.58 1.68v.01C6.99.24 9.28.24 10.7 1.7l4.55 4.69c1.42 1.46 1.42 3.81.02 5.26zm18.57 8.38v-2.86h-4.95v-1.95l4.95-7.27h1.78v7.66h1.48v1.56h-1.48v2.86h-1.78zm0-9.73h-.03l-3.47 5.31h3.5V10.3zm-4.25 16.66c1.41-1.45 3.9-1.81 5.31-.35l4.56 4.69c1.41 1.45 1.42 3.81.01 5.26-.43.44-1.01 1.03-1.4 1.44l-9.6-9.88 1.12-1.16z" fill="#FFF"/>
</symbol>

<symbol id="icon-email" viewBox="0 0 200 200">
        <path d="M72.516 136.507c-23.174.918-34.327 34.875-42.307 51.624h52.006l-4.932-51.404c-1.654-.25-3.223-.28-4.768-.22zm9.646-56.01c-4.69 0-8.44 3.142-8.44 7.016s3.75 7.015 8.44 7.015c4.69 0 8.494-3.14 8.494-7.015 0-3.874-3.805-7.015-8.494-7.015zm31.785-30.085c12.276 16.458 26.415 23.236 26.415 23.236-1.658-28.49-14.653-38.39-41.595-38.526-32.23-.165-48.27 24.58-41.212 50.254 0 0 55.943-23.216 56.392-34.964zm-17.482 77.436c-2.552.233-4.72 2.03-4.603 3.78l.383 5.755c.117 1.747 2.545 3.083 5.097 2.85l8.22-.767c2.552-.233 4.775-2.035 4.66-3.782l-.385-5.644c-.117-1.75-2.545-3.138-5.097-2.905l-8.275.713zm53.05-22.36c10.035-2.58 17.48-2.418 17.48-22.962 0-9.895-5.914-18.372-14.302-21.92-6.18-23.402-25.418-47.193-54.31-47.844-.92-.02-1.836-.024-2.74 0-27.987.72-47.164 22.36-49.322 47.46-8.894 3.29-15.59 12.04-15.29 22.304.676 23.052 10.095 23.418 22.634 23.675V61.59c.264-19.07 18.948-40.224 44.72-40.224 25.616 0 39.786 19.938 46.033 37.65v45.87c-1.26 2.952-4.634 6.27-10.796 12.22-8.038 7.76-19.618 11.783-19.618 11.783-1.346.283-2.295 2.082-1.918 3.616.377 1.535 2.017 2.456 3.288 1.863 0 0 12.217-3.988 21.373-12.825 9.063-8.75 12.738-15.97 12.77-16.057zM129.017 135.3c-2.07.076-4.192.573-6.412 1.536l-4.823 51.295h52.008c-7.733-16.17-20.773-53.582-40.772-52.83zm-20.277 11.345H91.315c-1.2 0-2.254.565-2.192 1.26l2.85 40.226h16.057l2.793-40.224c.06-.696-.883-1.26-2.082-1.26zm17.593-59.132c0-3.874-3.806-7.014-8.495-7.014-4.69 0-8.494 3.14-8.494 7.013 0 3.874 3.805 7.015 8.494 7.015 4.69 0 8.495-3.14 8.495-7.015z" fill="#11cd6e"/>
</symbol>

<symbol id="icon-home" viewBox="0 0 45 41">
        <path d="M0 20.5L22.71 0 45 20.5h-4.29V41H28.29V24.68H17.14V41H4.29V20.5H0z" fill="#434343"/>
</symbol>

<symbol id="icon-menu" viewBox="0 0 45 37">
        <path d="M0 0h46v9H0zM0 14h46v9H0zM0 28h46v9H0z" fill="#FFF"/>
</symbol>
</svg>